<?xml version="1.0" encoding="UTF-8"?>
<svg version="1.1" viewBox="0 0 1200 980" width="300" height="245" xmlns="http://www.w3.org/2000/svg">
<path transform="translate(565,3)" d="m0 0 7 1 10 6 10 9 6 10 6 16 8 24 12 25 13 23 12 19 3 4 5-1 13-9 11-9 10-9 14-14 7-8 11-10 8-5 5-2 7 1 11 8 12 11 11 14 9 12 11 13 9 9 14 11 16 13 13 9 15 8 38 15 7 4 5-1 9-7 30-30 3-4h2l2-4 16-16 8-6 6 2 6 5 9 13 9 15 11 19 13 17 13 16 9 10 11 11 7 8 8 8 10 14 8 15 7 8 18 11 23 12 28 14 15 9 2 3h-1196l4-4 21-8 37-11 17-7 11-8 7-10 5-11 8-15 9-11 10-10 8-7 17-14 8-7 3-1v-2l8-7 12-12 11-9 9-6 13-7 13-10 12-11 9-9 10-13 14-19 11-14 9-10 10-10 4 1 11 13 10 13 11 12 11 9 18 10 13 10 21 21 3 5h3l16-32 8-18 9-13 8-11 8-17 7-18 4-6 4-3 15 1 21 3h11l3-1 2-4 9-12 16-26 8-11zm2 19-7 9-12 17-12 14-11 9-7 17-4 14-5 16-5 9-13 7-4 4-4-1 5-40-1-13-4-16-3-2-4 10-6 17-10 16-10 15-7 15-7 14-9 13-12 28-5 10-1 1v16l4 6 5 5h-10l-9-4-5 1-9 6h-5l-1-2-8 1-8 3-12 9-5 2-4-1-2-5 8-16 2-5-3-1-6 3-9-1-4-2 3-5 8-9-2-2-11 9-5 1v-7l5-15 8-17 7-10 1-4-5 2-9 6-32 32-4-1-1-1v-7l3-13v-9l-2-6v-9l5-13 11-23 3-9v-13l-5 1-9 12-6 10-13 23-7 9-8 8-15 11-36 24-11 7-10 8-10 9-11 11-11 9-13 11-10 9-10 10-9 14-6 12v2l6-1 10-6 4-1 2 5 3 5h3l3-12 2-11 2-3 4 2 5 8 3-1 4-18 5-8 4-1 5 5 9 19 3 2v-35l4 2 8 15h2l1-23 3-7 9-10 13-9 6-5 2 1-4 7-9 12-5 9v4l10 2 1 15 3 5 6-1 7-10 3-1-1 9-4 10-1 3 4-2 6-7 7-11 1-4-1-19 3-5 3-4 4-10 4-5 3-1 2 5 4 5 7 4 1 4-2 9-2 7 4 1 13-9 5-2 4 1 2 4-1 9-4 10-8 13h3l11-15 5-6h3l1 7-6 25-2 4-6 4 1 5 3 7-3 5-6 4-6 12v2l-4 2-10 8-2 5 8-6 9-6 8-7 7-8 12-6 14-3v-4l-10-5-2-3 1-4 6-9 9-10 10-6 10-4 22-6 10-2 8-6h7l2 1 3 6 3 1 14-16 10-11 8-11 3-1-3 15-8 19-6 13-5 20-7 17-4 8v2l4-1 13-15 13-13 9-11 8-10 1-3 6-2v17l-2 8 1 4 5-10 4-11 1-5v-22l4-7 14-15 3-7 3-12 9-16 4-16h13l4-1-5 8-2 7v11l3 34 3 18h-3l-1-2-2-16-3-14-4-8-2-2-4 1-6 15-1 5 5 3 4 4 3 24 2 10-1 7-6 4v2l-10 3-2 3 5 10 5-1 7-4 5 1 3 1 2 4 7 9h4l-1-7-2-11v-6l4-6 9-6 3-1-1 25 3-1 8-13 6-12 8-13 2-1 6 5 6 8h3v-15l-3-10 4-12 7-8 8-7 8-4 1 4-2 9h4l8-13 14-17 7-8 9-8 21-11 14-5-12 22-10 15-11 18v2l3 2-2 5-3 3 2 4 4 4-3 18v21l-12-1-4 5-3 1-11-9h-3l2 6v9l-4 23-1 7 3 1 7-1 1-1-1-10 3-6 3-3 8-1 4 1 2 5 4 1h10l9-4 11-1 10 4 7 8 5 11h4l-1-14-3-7-8-10 1-3 30-16 20-11 3-4 3-8 10-14 4-9v-2h2l-2 9-2 11v9l6 2h8l-3 5-10 11-7 8-11 11-7 8-8 10-2 6 3 1h18l12-3 16-7 8-5-4 6-8 7-9 14-9 11-11 9v2l6-1 18-10 17-12 8-5 2 1-10 13v2h7l15-4 10-5 8-8 8-7 10-10 2-1v-2l5-2-3 6-10 14-9 14h3l13-10 11-9 7-8 6-7 14-11 8-8 1 3-10 13-12 17v3h18l6-3 10-9 36-36-3 7-9 16 2 5 3 1v10l5 1 10-4 5 1 3 4h26l3 1 2 4 8 2 44 5 36 8 9 1-5-5-15-8-12-5-8-6-3-1-2-4-7-11-3-8v-10l8-16-2-4-7-4-7-2-4-14-3-1-3 12-4 1-12-1-6-3-5-5-3-2-13 1-33 4 8-12 15-20 6-12 8-31-4-1-8 7-7 8-9 10-7 8-11 12-8 8-10 8-12 5-13 2-23 11-8 6-7 8-5 4 3-11-5 1-26 14-11 7-3 1 7-8 6-7 1-2v-8l-2-8v-10l9-24 1-10-3-3-4 2-9 6-16 11-4 1-1-5 3-19v-4h-3l-5 9-8 11-5 6-7-1-4-3-4 2-8 10-6 7-3 1 10-23 5-13-3-10h-5l-10 8-7 12-8 9-10 17-9 12 4-9 8-16 8-18 6-19 2-9v-28l-12-2 4-9 6-14 3-9v-5l-5 2-8 6-18 18-9 11-10 11-8 10-4 3-2-1h-6l-14 7-7-1-13-9-6-3-10-1-10 6-13 12-10 11-8 10-4 2-2-3 1-6 6-15 3-8-1-6-2-3h-5l-7 4-8 2h-5l-1-1 1-8 15-43 3-14-1-4-12 2 9-50v-3zm436 161 1 19 2 4 1 7 5-1 9-3 5 1 2 1-2-5-7-9-8-4-5-9z" fill="#028CCA"/>
<path transform="translate(656,379)" d="m0 0h101l114 3 147 5 13 1 3 2-101 3-82 2-376 11-29 1h-54l-49-7-46-7-19-3-1-2 271-4 71-2 21-1z" fill="#028CCA"/>
<path transform="translate(479,353)" d="m0 0h128l104 3 97 3 43 2 12 1v1l-603 18h-30l-65-7-42-5-10-2v-2l184-3 86-2 66-3 23-2z" fill="#038DCB"/>
<path transform="translate(213,544)" d="m0 0h14l12 3 9 6 3 1 2-8 2-2h6l5 5v90l-2 10-6 12-10 10-8 5-10 3h-20l-11-4-8-6-5-6 1-5 4-4 3-1 14 9 6 2h13l10-4 8-7 4-8 2-16v-5l-7 4-8 4-7 2h-18l-12-4-9-7-7-8-6-12-2-8v-11l3-12 5-9 8-9 11-7zm3 14-10 3-10 9-5 8-1 4v15l4 9 6 7 8 5 7 2h10l10-3 9-7 6-10 1-3v-15l-4-10-5-6-7-5-10-3z" fill="#038DCB"/>
<path transform="translate(691,499)" d="m0 0 9 1 1 1 1 8v31l-1 15 16-9 9-2h12l10 2 10 5 11 10 7 14 2 9v11l-3 12-7 11-7 7-10 6-10 3h-17l-10-3-8-5-5-3v8l-3 3-4 1-6-3-1-3v-126l1-3zm37 59-10 3-10 9-5 8-1 4v14l4 10 6 7 8 5 7 2h10l10-3 9-7 5-8 2-7v-12l-4-11-6-7-9-5-7-2z" fill="#038DCB"/>
<path transform="translate(602,407)" d="m0 0h155l163 2 29 1-2 2-17 1-62 1-219 2-59 1-182 2h-71l-55-3-43-3-8-1v-1l235-1 72-1 44-1z" fill="#038DCB"/>
<path transform="translate(433,508)" d="m0 0 9 1 2 2v71h61v-69l2-4 7-1 5 2 1 1v119l-4 4h-6l-4-3-1-15v-19l-61-1v28l-1 8-3 2h-6l-4-3-1-3v-117z" fill="#038DCB"/>
<path transform="translate(597,544)" d="m0 0h12l10 2 10 5 10 9 6 10 3 8 1 7v43l-2 5-2 1h-7l-3-4-1-6-7 4-8 4-7 2h-17l-10-3-10-6-7-7-6-10-4-13v-13l4-12 7-11 9-8 10-5zm3 14-10 3-6 4-7 7-4 10v15l4 9 6 7 10 6 4 1h12l11-4 8-7 5-9 1-3v-15l-4-10-6-7-9-5-8-2z" fill="#038DCB"/>
<path transform="translate(339,544)" d="m0 0h13l12 3 11 7 8 8 6 12 2 8v14l-2 9-6 11-10 10-12 6-7 2h-17l-10-3-11-7-8-9-6-12-1-4v-20l5-13 9-11 11-7 8-3zm4 14-9 2-9 6-6 7-4 10v13l3 8 6 8 9 6 7 2h10l10-3 6-4 7-8 3-8v-16l-6-12-8-7-7-3-5-1z" fill="#038DCB"/>
<path transform="translate(984,543)" d="m0 0h10l13 1 4 2 1 5-2 6-2 1-32 1-7 2-4 7 1 7 4 5 2 1 30 1 8 3 6 5 5 8 2 7-1 11-6 10-8 6-6 2h-49l-3-4 1-7 2-3 46-1 5-3 3-6-1-8-4-4-3-1-29-1-8-3-8-8-4-9v-12l5-10 9-8 7-2z" fill="#038DCB"/>
<path transform="translate(870,508)" d="m0 0h7l4 3 1 32 22 1 3 1 1 2v8l-4 3-22 1v50l3 7 5 3h7l9-5 6 1 3 3v6l-4 5-10 5h-14l-10-5-7-8-3-8v-102z" fill="#038DCB"/>
<path transform="translate(819,544)" d="m0 0 8 2 1 6v75l-2 5-2 2h-6l-4-3-1-3v-80l3-3z" fill="#038DCB"/>
<path transform="translate(817,508)" d="m0 0 9 1 2 2v9l-3 3-6 1-5-3-2-4 1-6z" fill="#038DCB"/>
</svg>